# xmcd
#
# Track frame offsets:
# 150
# 13613
# 32613
# 46400
# 63050
# 78913
# 93388
# 108850
# 125950
# 140550
# 154900
# 170050
# 184425
# 199950
# 215488
# 228775
# 244313
#
# Disc length: 3439 seconds
#
# Revision: 0
# Processed by: cddbd v1.4PL0 Copyright (c) Steve Scherf et al.
# Submitted via: Axialis_AX_CDPlayer 2.6
#
DISCID=ef0d6d11
DTITLE=Le Chin Xuan - THompson #1 m. music
DYEAR=1900
DGENRE=
TTITLE0=yen xen
TTITLE1=fG
TTITLE2=dxan ien
TTITLE3=xuan chi
TTITLE4=xen xuan
TTITLE5=nee lia lao
TTITLE6=hue niae nao
TTITLE7=ni ni
TTITLE8=xuan chien mien
TTITLE9=thuy zu zu
TTITLE10=yome nie wan
TTITLE11=wan lao xien
TTITLE12=zien xien
TTITLE13=an wah
TTITLE14=bao bao wan lao
TTITLE15=hu ming zian
TTITLE16=lau na lao nga
EXTD=
EXTT0=
EXTT1=
EXTT2=
EXTT3=
EXTT4=
EXTT5=
EXTT6=
EXTT7=
EXTT8=
EXTT9=
EXTT10=
EXTT11=
EXTT12=
EXTT13=
EXTT14=
EXTT15=
EXTT16=
PLAYORDER=
